<svg id="Layer_1" data-name="Layer 1" xmlns="http://www.w3.org/2000/svg" viewBox="0 0 1200 1200"><defs><style>.cls-1{fill:#ee7c54;}</style></defs><path d="M699.27,559.08V772.44h43.55q37.17,0,63.55-7.8t43.17-25.17q16.79-17.38,24.57-44.77t7.8-66.13q0-34.38-6.79-59.75t-22-42.17q-15.18-16.77-39.35-25a147,147,0,0,0-26.83-6.15l71.39-29.42q37.95,11.79,62.75,34a137.73,137.73,0,0,1,37,53.75q12.18,31.57,12.19,71.53a215.64,215.64,0,0,1-11.4,69.94,151,151,0,0,1-37.36,59.36q-26,25.77-67.94,41.16T750.82,811.2H699.27V949.49q0,18,5.39,29T719.25,995a56,56,0,0,0,21.38,7.39,175,175,0,0,0,25.78,1.81h27.18v34.37H539v-34.37H549.4a162.31,162.31,0,0,0,26.18-2A53.15,53.15,0,0,0,597,994.05q9.18-6.21,14.39-17.78t5.2-30.79V633Z"/><path class="cls-1" d="M543.73,762.46l-104.1-74.89c-20.95-5-45.52-1.61-71.46,2-58.08,8-130.27,18-181.63-74.46-35.21-63.42-21.6-159.48,34.67-244.72,66.52-100.78,169.34-155.22,276.31-146.82,30.06-21.79,174.61-117.38,300.75-41.28,36.26-4.94,98.21,1.25,110.59,57.47,12.88,58.49-28.52,120.19-79.55,156.12L875,471.7l-16.26,8c-2.12,1-212.9,106.44-305.79,266.8ZM415.56,651.7a132.14,132.14,0,0,1,35.77,4.46l2.84.79,79.47,57.16c86.25-135.89,243.45-228.43,294.3-255.92l-44.18-73.36,14.46-8.55c52.87-31.28,87.16-88.11,78.08-129.39-9.52-43.17-75.63-31.3-78.46-30.79l-6.52,1.22-5.62-3.6c-120-77.65-271.53,38.93-273.06,40.13l-5.3,4.14-6.68-.69C404,247.4,309.94,296.46,249,388.73,200.3,462.56,186.9,547,215.7,598.9c40.28,72.54,90.17,65.62,147.89,57.61C380.77,654.13,398.31,651.7,415.56,651.7Z"/><path class="cls-1" d="M502.37,240.72s-54.84,25-80,100.18"/><path class="cls-1" d="M422.34,357.57a16.69,16.69,0,0,1-15.8-22c27.17-81.06,86.4-108.89,88.91-110a16.67,16.67,0,0,1,13.91,30.29c-2.15,1-48.89,23.74-71.21,90.34A16.68,16.68,0,0,1,422.34,357.57Z"/><path class="cls-1" d="M794.75,199.72s-24.7,5-45,35.2"/><path class="cls-1" d="M749.74,251.59a16.67,16.67,0,0,1-13.82-26c23.43-34.84,52.29-41.58,55.51-42.23A16.67,16.67,0,0,1,798.28,216c-1.16.28-19.07,5-34.68,28.21A16.67,16.67,0,0,1,749.74,251.59Z"/><path class="cls-1" d="M499.06,566.11a108.36,108.36,0,0,1-28.79-4C432,551.65,400.2,522,385.18,482.69a16.67,16.67,0,0,1,31.15-11.9C427.56,500.16,451,522.3,479.1,530c21.48,5.92,42.77,2.2,58.4-10.18A16.67,16.67,0,1,1,558.2,546,94.53,94.53,0,0,1,499.06,566.11Z"/><path class="cls-1" d="M734.53,428a16.67,16.67,0,0,1-10.64-29.51c3.77-3.16,36-31.87,13-70.24a16.67,16.67,0,1,1,28.59-17.16c30.7,51.16.09,96.38-20.39,113.15A16.6,16.6,0,0,1,734.53,428Z"/><path class="cls-1" d="M446.84,672.22s32.66-91.8,173.81-204.35"/><path class="cls-1" d="M446.83,688.86a16.67,16.67,0,0,1-15.7-22.23c1.4-3.93,35.9-97.59,179.12-211.8A16.67,16.67,0,0,1,631,480.9C496.13,588.48,462.85,677,462.52,677.86A16.69,16.69,0,0,1,446.83,688.86Z"/><path class="cls-1" d="M806.71,390.63s-48.72,8.11-105.53,35.1"/><path class="cls-1" d="M701.19,442.4A16.67,16.67,0,0,1,694,410.67c58.26-27.67,107.87-36.14,110-36.48a16.67,16.67,0,0,1,5.49,32.88c-.46.09-47.32,8.15-101.13,33.72A16.54,16.54,0,0,1,701.19,442.4Z"/><path class="cls-1" d="M907.72,984.05a62.55,62.55,0,1,1,62.46,62.63A62.48,62.48,0,0,1,907.72,984.05Z"/></svg>